<?xml version="1.0" encoding="UTF-8"?>
<svg xmlns="http://www.w3.org/2000/svg" viewBox="0 0 512 512">
  <defs>
    <linearGradient id="bg" x1="0" y1="0" x2="1" y2="1">
      <stop offset="0%" stop-color="#0b1220"/>
      <stop offset="100%" stop-color="#13253a"/>
    </linearGradient>
    <linearGradient id="bridge" x1="0" y1="0" x2="1" y2="0">
      <stop offset="0%" stop-color="#22c55e"/>
      <stop offset="50%" stop-color="#3b82f6"/>
      <stop offset="100%" stop-color="#22c55e"/>
    </linearGradient>
  </defs>
  <rect x="24" y="24" width="464" height="464" rx="96" fill="url(#bg)"/>
  <rect x="72" y="96" width="156" height="130" rx="22" fill="#07101b" stroke="#2f4667" stroke-width="10"/>
  <rect x="284" y="286" width="156" height="130" rx="22" fill="#07101b" stroke="#2f4667" stroke-width="10"/>
  <path d="M122 158 h56 M122 182 h84 M122 206 h44" stroke="#9fb3cc" stroke-width="10" stroke-linecap="round"/>
  <path d="M334 348 h56 M334 372 h84 M334 396 h44" stroke="#9fb3cc" stroke-width="10" stroke-linecap="round"/>
  <path d="M224 224 L288 288" stroke="url(#bridge)" stroke-width="20" stroke-linecap="round"/>
  <path d="M266 238 L224 224 L238 266" fill="none" stroke="#3b82f6" stroke-width="12" stroke-linecap="round" stroke-linejoin="round"/>
  <path d="M274 246 L288 288 L246 274" fill="none" stroke="#22c55e" stroke-width="12" stroke-linecap="round" stroke-linejoin="round"/>
  <circle cx="206" cy="206" r="16" fill="#3b82f6"/>
  <circle cx="306" cy="306" r="16" fill="#22c55e"/>
  <circle cx="356" cy="116" r="28" fill="#0b1726" stroke="#3b82f6" stroke-width="10"/>
  <path d="M345 116 h22 M356 105 v22" stroke="#dbe7f6" stroke-width="8" stroke-linecap="round"/>
</svg>
