<?xml version="1.0" encoding="UTF-8"?>
<svg xmlns="http://www.w3.org/2000/svg" viewBox="0 0 512 512" role="img" aria-label="WheelMaker icon">
  <defs>
    <linearGradient id="bg" x1="0" y1="0" x2="1" y2="1">
      <stop offset="0%" stop-color="#01112b"/>
      <stop offset="100%" stop-color="#00103a"/>
    </linearGradient>
    <linearGradient id="wmBlue" x1="0" y1="0" x2="1" y2="1">
      <stop offset="0%" stop-color="#2bd6ff"/>
      <stop offset="100%" stop-color="#149cff"/>
    </linearGradient>
    <linearGradient id="wmWhite" x1="0" y1="0" x2="1" y2="1">
      <stop offset="0%" stop-color="#ffffff"/>
      <stop offset="100%" stop-color="#dfe7f5"/>
    </linearGradient>
    <filter id="glowBlue" x="-30%" y="-30%" width="160%" height="160%">
      <feDropShadow dx="0" dy="0" stdDeviation="5" flood-color="#22c5ff" flood-opacity="0.45"/>
    </filter>
    <filter id="glowWhite" x="-30%" y="-30%" width="160%" height="160%">
      <feDropShadow dx="0" dy="0" stdDeviation="4" flood-color="#e7f0ff" flood-opacity="0.35"/>
    </filter>
  </defs>

  <rect x="0" y="0" width="512" height="512" rx="96" fill="url(#bg)"/>

  <g transform="translate(-6 0)">
    <g transform="translate(256 256) scale(0.86) translate(-256 -256)">
      <path
        d="M 86 182 L 124 182 L 160 260 L 196 182 L 228 182 L 288 320 L 254 320 L 196 236 L 170 320 L 146 320 Z"
        fill="url(#wmBlue)"
        filter="url(#glowBlue)"
      />

      <path
        d="M 268 236 L 296 182 L 338 260 L 380 182 L 442 320 L 408 320 L 380 262 L 344 320 L 332 320 L 296 262 L 282 288 L 268 264 Z"
        fill="url(#wmWhite)"
        filter="url(#glowWhite)"
      />
    </g>
  </g>
</svg>
